<svg width="22" height="22" viewBox="0 0 22 22" fill="none" xmlns="http://www.w3.org/2000/svg">
<path d="M9 7L9.5547 6.16795C9.24784 5.96338 8.8533 5.94431 8.52814 6.11833C8.20298 6.29234 8 6.6312 8 7H9ZM15 11L15.5547 11.8321C15.8329 11.6466 16 11.3344 16 11C16 10.6656 15.8329 10.3534 15.5547 10.1679L15 11ZM9 15H8C8 15.3688 8.20298 15.7077 8.52814 15.8817C8.8533 16.0557 9.24784 16.0366 9.5547 15.8321L9 15ZM20 11C20 15.9706 15.9706 20 11 20V22C17.0751 22 22 17.0751 22 11H20ZM11 20C6.02944 20 2 15.9706 2 11H0C0 17.0751 4.92487 22 11 22V20ZM2 11C2 6.02944 6.02944 2 11 2V0C4.92487 0 0 4.92487 0 11H2ZM11 2C15.9706 2 20 6.02944 20 11H22C22 4.92487 17.0751 0 11 0V2ZM8.4453 7.83205L14.4453 11.8321L15.5547 10.1679L9.5547 6.16795L8.4453 7.83205ZM14.4453 10.1679L8.4453 14.1679L9.5547 15.8321L15.5547 11.8321L14.4453 10.1679ZM10 15V7H8V15H10Z" fill="#7C3AED"/>
</svg>
