<svg width="135" height="40" viewBox="0 0 135 40" fill="none" xmlns="http://www.w3.org/2000/svg">
<g clip-path="url(#clip0_0_778)">
<path d="M130 0H5C2.23858 0 0 2.23858 0 5V35C0 37.7614 2.23858 40 5 40H130C132.761 40 135 37.7614 135 35V5C135 2.23858 132.761 0 130 0Z" fill="black"/>
<path d="M130 0.800044C131.114 0.801331 132.181 1.24427 132.968 2.03169C133.756 2.81911 134.199 3.8867 134.2 5.00024V35.0002C134.199 36.1138 133.756 37.1814 132.968 37.9688C132.181 38.7562 131.114 39.1991 130 39.2004H5C3.88645 39.1992 2.81888 38.7562 2.0315 37.9688C1.24412 37.1814 0.801231 36.1138 0.8 35.0002V5.00024C0.801212 3.88669 1.24409 2.81909 2.03148 2.03166C2.81886 1.24424 3.88644 0.801309 5 0.800044H130ZM130 0.000244141H5C3.67511 0.00412224 2.40559 0.532152 1.46875 1.46899C0.531908 2.40584 0.0038781 3.67535 0 5.00024L0 35.0002C0.0038781 36.3251 0.531908 37.5947 1.46875 38.5315C2.40559 39.4683 3.67511 39.9964 5 40.0002H130C131.325 39.9964 132.594 39.4683 133.531 38.5315C134.468 37.5947 134.996 36.3251 135 35.0002V5.00024C134.996 3.67535 134.468 2.40584 133.531 1.46899C132.594 0.532152 131.325 0.00412224 130 0.000244141Z" fill="#A6A6A6"/>
<path d="M47.4184 10.2433C47.4366 10.6103 47.3799 10.9771 47.2518 11.3214C47.1237 11.6658 46.9268 11.9804 46.6732 12.2462C46.389 12.541 46.0457 12.7724 45.6659 12.9254C45.2861 13.0784 44.8783 13.1494 44.4691 13.1339C44.0573 13.1376 43.649 13.059 43.268 12.9026C42.8871 12.7462 42.5412 12.5152 42.2508 12.2233C41.9604 11.9313 41.7313 11.5842 41.5769 11.2024C41.4226 10.8207 41.3461 10.4119 41.352 10.0001C41.3462 9.58837 41.4227 9.17959 41.577 8.79781C41.7314 8.41603 41.9605 8.06895 42.2509 7.77695C42.5413 7.48496 42.8871 7.25395 43.268 7.09748C43.649 6.94102 44.0573 6.86226 44.4691 6.86584C44.8925 6.86456 45.3116 6.95016 45.7006 7.11734C46.0619 7.26378 46.3834 7.49348 46.6391 7.78774L46.1117 8.31554C45.9107 8.07899 45.6581 7.89178 45.3733 7.76834C45.0885 7.64491 44.7791 7.58856 44.4691 7.60364C44.157 7.60202 43.8478 7.66341 43.56 7.78412C43.2722 7.90483 43.0118 8.08239 42.7942 8.30615C42.5767 8.52991 42.4065 8.79527 42.2939 9.08635C42.1814 9.37743 42.1287 9.68823 42.1391 10.0001C42.1317 10.4673 42.2631 10.9262 42.5168 11.3186C42.7705 11.711 43.135 12.0192 43.5641 12.2041C43.9932 12.3891 44.4676 12.4425 44.927 12.3575C45.3865 12.2725 45.8104 12.0529 46.1449 11.7267C46.4528 11.395 46.6313 10.9637 46.6478 10.5113H44.4691V9.79064H47.3764C47.4039 9.93998 47.4179 10.0915 47.4184 10.2433Z" fill="white"/>
<path d="M52.0277 7.73744H49.2953V9.63974H51.7592V10.3605H49.2953V12.2628H52.0277V13.0001H48.5248V7.00014H52.0277V7.73744Z" fill="white"/>
<path d="M55.2787 13.0001H54.5072V7.73744H52.8314V7.00014H56.9545V7.73744H55.2787V13.0001Z" fill="white"/>
<path d="M59.9379 13.0001V7.00014H60.7084V13.0001H59.9379Z" fill="white"/>
<path d="M64.1283 13.0001H63.3568V7.73744H61.6811V7.00014H65.8041V7.73744H64.1283V13.0001Z" fill="white"/>
<path d="M73.6093 12.2247C73.0253 12.807 72.2343 13.1339 71.4096 13.1339C70.5849 13.1339 69.7939 12.807 69.2099 12.2247C68.921 11.9321 68.6939 11.5844 68.542 11.2022C68.3902 10.82 68.3168 10.4113 68.3261 10.0001C68.3168 9.58902 68.3902 9.18023 68.542 8.79807C68.6939 8.4159 68.921 8.06817 69.2099 7.77554C69.4986 7.48681 69.8413 7.25784 70.2186 7.10174C70.5958 6.94564 71.0002 6.86548 71.4085 6.86584C71.8167 6.8662 72.2209 6.94708 72.5979 7.10385C72.9749 7.26062 73.3173 7.49019 73.6054 7.77944C73.8945 8.0713 74.1221 8.41825 74.2746 8.79972C74.4271 9.18119 74.5014 9.5894 74.4931 10.0001C74.5022 10.4112 74.4286 10.8199 74.2768 11.2021C74.125 11.5842 73.898 11.932 73.6093 12.2247ZM69.7792 11.7223C70.2117 12.1541 70.7979 12.3966 71.4091 12.3966C72.0203 12.3966 72.6065 12.1541 73.039 11.7223C73.2608 11.4953 73.4343 11.2256 73.5489 10.9296C73.6636 10.6336 73.717 10.3174 73.706 10.0001C73.717 9.6829 73.6636 9.36672 73.5489 9.07072C73.4343 8.77471 73.2608 8.50502 73.039 8.27794C72.6065 7.84615 72.0203 7.60363 71.4091 7.60363C70.7979 7.60363 70.2117 7.84615 69.7792 8.27794C69.5577 8.5052 69.3845 8.77495 69.2701 9.07092C69.1556 9.3669 69.1022 9.68299 69.1132 10.0001C69.1022 10.3173 69.1556 10.6334 69.2701 10.9294C69.3845 11.2253 69.5577 11.4951 69.7792 11.7223Z" fill="white"/>
<path d="M75.5751 13.0001V7.00014H76.5136L79.4296 11.6676H79.4628L79.4296 10.5113V7.00014H80.2011V13.0001H79.3964L76.3456 8.10654H76.3124L76.3456 9.26284V13.0001H75.5751Z" fill="white"/>
<path d="M47.4184 10.2433L47.3183 10.2436L47.3185 10.2483L47.4184 10.2433ZM46.6732 12.2462L46.7452 12.3157L46.7456 12.3153L46.6732 12.2462ZM45.6659 12.9254L45.7033 13.0182L45.6659 12.9254ZM44.4691 13.1339L44.4729 13.0339L44.4682 13.0339L44.4691 13.1339ZM41.5769 11.2024L41.4842 11.2399H41.4842L41.5769 11.2024ZM41.352 10.0001L41.452 10.0016L41.452 9.99872L41.352 10.0001ZM41.577 8.79781L41.4843 8.76033L41.577 8.79781ZM44.4691 6.86584L44.4682 6.96584L44.4694 6.96584L44.4691 6.86584ZM45.7006 7.11734L45.6611 7.20923L45.663 7.21001L45.7006 7.11734ZM46.6391 7.78774L46.7098 7.85842L46.7757 7.7925L46.7146 7.72215L46.6391 7.78774ZM46.1117 8.31554L46.0355 8.38029L46.1057 8.46297L46.1824 8.38622L46.1117 8.31554ZM45.3733 7.76834L45.3335 7.8601L45.3733 7.76834ZM44.4691 7.60364L44.4686 7.70378L44.474 7.70352L44.4691 7.60364ZM43.56 7.78412L43.5987 7.87634L43.56 7.78412ZM42.1391 10.0001L42.2392 10.0017L42.239 9.99681L42.1391 10.0001ZM42.5168 11.3186L42.4328 11.3729L42.5168 11.3186ZM44.927 12.3575L44.9452 12.4558L44.927 12.3575ZM46.1449 11.7267L46.2148 11.7984L46.2182 11.7948L46.1449 11.7267ZM46.6478 10.5113L46.7477 10.515L46.7515 10.4113H46.6478V10.5113ZM44.4691 10.5113H44.3691V10.6113H44.4691V10.5113ZM44.4691 9.79064V9.69064H44.3691V9.79064H44.4691ZM47.3764 9.79064L47.4747 9.77254L47.4597 9.69064H47.3764V9.79064ZM52.0277 7.73744V7.83744H52.1277V7.73744H52.0277ZM49.2953 7.73744V7.63744H49.1953V7.73744H49.2953ZM49.2953 9.63974H49.1953V9.73974H49.2953V9.63974ZM51.7592 9.63974H51.8592V9.53974H51.7592V9.63974ZM51.7592 10.3605V10.4605H51.8592V10.3605H51.7592ZM49.2953 10.3605V10.2605H49.1953V10.3605H49.2953ZM49.2953 12.2628H49.1953V12.3628H49.2953V12.2628ZM52.0277 12.2628H52.1277V12.1628H52.0277V12.2628ZM52.0277 13.0001V13.1001H52.1277V13.0001H52.0277ZM48.5248 13.0001H48.4248V13.1001H48.5248V13.0001ZM48.5248 7.00014V6.90014H48.4248V7.00014H48.5248ZM52.0277 7.00014H52.1277V6.90014H52.0277V7.00014ZM55.2787 13.0001V13.1001H55.3787V13.0001H55.2787ZM54.5072 13.0001H54.4072V13.1001H54.5072V13.0001ZM54.5072 7.73744H54.6072V7.63744H54.5072V7.73744ZM52.8314 7.73744H52.7314V7.83744H52.8314V7.73744ZM52.8314 7.00014V6.90014H52.7314V7.00014H52.8314ZM56.9545 7.00014H57.0545V6.90014H56.9545V7.00014ZM56.9545 7.73744V7.83744H57.0545V7.73744H56.9545ZM55.2787 7.73744V7.63744H55.1787V7.73744H55.2787ZM59.9379 13.0001H59.8379V13.1001H59.9379V13.0001ZM59.9379 7.00014V6.90014H59.8379V7.00014H59.9379ZM60.7084 7.00014H60.8084V6.90014H60.7084V7.00014ZM60.7084 13.0001V13.1001H60.8084V13.0001H60.7084ZM64.1283 13.0001V13.1001H64.2283V13.0001H64.1283ZM63.3568 13.0001H63.2568V13.1001H63.3568V13.0001ZM63.3568 7.73744H63.4568V7.63744H63.3568V7.73744ZM61.6811 7.73744H61.5811V7.83744H61.6811V7.73744ZM61.6811 7.00014V6.90014H61.5811V7.00014H61.6811ZM65.8041 7.00014H65.9041V6.90014H65.8041V7.00014ZM65.8041 7.73744V7.83744H65.9041V7.73744H65.8041ZM64.1283 7.73744V7.63744H64.0283V7.73744H64.1283ZM73.6093 12.2247L73.6799 12.2956L73.6805 12.295L73.6093 12.2247ZM69.2099 12.2247L69.1387 12.295L69.1393 12.2956L69.2099 12.2247ZM68.542 11.2022L68.635 11.1653L68.542 11.2022ZM68.3261 10.0001L68.4262 10.0024L68.4261 9.99787L68.3261 10.0001ZM69.2099 7.77554L69.1392 7.70484L69.1387 7.70528L69.2099 7.77554ZM70.2186 7.10174L70.2568 7.19414L70.2186 7.10174ZM73.6054 7.77944L73.6764 7.70906L73.6763 7.70886L73.6054 7.77944ZM74.4931 10.0001L74.393 9.99812L74.3931 10.0023L74.4931 10.0001ZM69.7792 11.7223L69.7076 11.7921L69.7086 11.7931L69.7792 11.7223ZM73.039 11.7223L73.1097 11.7931L73.1105 11.7922L73.039 11.7223ZM73.706 10.0001L73.6058 9.99667L73.6061 10.0036L73.706 10.0001ZM73.5489 9.07072L73.4557 9.10683L73.5489 9.07072ZM73.039 8.27794L73.1105 8.20806L73.1097 8.20717L73.039 8.27794ZM69.7792 8.27794L69.7085 8.20716L69.7076 8.20814L69.7792 8.27794ZM69.2701 9.07092L69.1768 9.03486L69.2701 9.07092ZM69.1132 10.0001L69.2134 10.0036L69.2131 9.99669L69.1132 10.0001ZM69.2701 10.9294L69.1768 10.9654L69.2701 10.9294ZM75.5751 13.0001H75.4751V13.1001H75.5751V13.0001ZM75.5751 7.00014V6.90014H75.4751V7.00014H75.5751ZM76.5136 7.00014L76.5984 6.94715L76.569 6.90014H76.5136V7.00014ZM79.4296 11.6676L79.3448 11.7206L79.3742 11.7676H79.4296V11.6676ZM79.4628 11.6676V11.7676H79.5657L79.5628 11.6648L79.4628 11.6676ZM79.4296 10.5113H79.3296L79.3296 10.5142L79.4296 10.5113ZM79.4296 7.00014V6.90014H79.3296V7.00014H79.4296ZM80.2011 7.00014H80.3011V6.90014H80.2011V7.00014ZM80.2011 13.0001V13.1001H80.3011V13.0001H80.2011ZM79.3964 13.0001L79.3115 13.053L79.3409 13.1001H79.3964V13.0001ZM76.3456 8.10654L76.4305 8.05363L76.4011 8.00654H76.3456V8.10654ZM76.3124 8.10654V8.00654H76.2095L76.2124 8.10941L76.3124 8.10654ZM76.3456 9.26284H76.4456L76.4456 9.25997L76.3456 9.26284ZM76.3456 13.0001V13.1001H76.4456V13.0001H76.3456ZM47.3185 10.2483C47.336 10.6017 47.2814 10.9549 47.158 11.2866L47.3455 11.3563C47.4783 10.9992 47.5371 10.6189 47.5183 10.2384L47.3185 10.2483ZM47.158 11.2866C47.0347 11.6182 46.8451 11.9212 46.6008 12.1772L46.7456 12.3153C47.0085 12.0396 47.2126 11.7133 47.3455 11.3563L47.158 11.2866ZM46.6012 12.1768C46.3268 12.4615 45.9953 12.6849 45.6286 12.8327L45.7033 13.0182C46.0962 12.8599 46.4512 12.6205 46.7452 12.3156L46.6012 12.1768ZM45.6286 12.8327C45.2618 12.9804 44.868 13.049 44.4729 13.034L44.4653 13.2339C44.8886 13.2499 45.3104 13.1764 45.7033 13.0182L45.6286 12.8327ZM44.4682 13.0339C44.0698 13.0375 43.6746 12.9614 43.306 12.8101L43.23 12.9951C43.6233 13.1565 44.0449 13.2377 44.47 13.2339L44.4682 13.0339ZM43.306 12.8101C42.9374 12.6587 42.6027 12.4352 42.3217 12.1527L42.1799 12.2938C42.4797 12.5952 42.8368 12.8336 43.23 12.9951L43.306 12.8101ZM42.3217 12.1527C42.0407 11.8702 41.819 11.5344 41.6697 11.165L41.4842 11.2399C41.6436 11.6341 41.8801 11.9924 42.1799 12.2938L42.3217 12.1527ZM41.6697 11.165C41.5203 10.7955 41.4463 10.4 41.452 10.0016L41.252 9.99871C41.2459 10.4238 41.3249 10.8458 41.4842 11.2399L41.6697 11.165ZM41.452 9.99872C41.4463 9.60028 41.5204 9.20472 41.6697 8.83529L41.4843 8.76033C41.325 9.15446 41.246 9.57647 41.252 10.0016L41.452 9.99872ZM41.6697 8.83529C41.8191 8.46587 42.0408 8.13001 42.3218 7.84747L42.18 7.70644C41.8802 8.00788 41.6437 8.36619 41.4843 8.76033L41.6697 8.83529ZM42.3218 7.84747C42.6028 7.56493 42.9374 7.34139 43.306 7.18999L43.23 7.00498C42.8368 7.16651 42.4798 7.405 42.18 7.70644L42.3218 7.84747ZM43.306 7.18999C43.6746 7.03859 44.0698 6.96238 44.4682 6.96584L44.47 6.76584C44.0449 6.76215 43.6233 6.84346 43.23 7.00498L43.306 7.18999ZM44.4694 6.96584C44.8791 6.9646 45.2847 7.04743 45.6611 7.20921L45.7401 7.02547C45.3385 6.85288 44.9059 6.76452 44.4688 6.76584L44.4694 6.96584ZM45.663 7.21001C46.0097 7.35054 46.3183 7.57096 46.5636 7.85333L46.7146 7.72215C46.4486 7.41601 46.114 7.17702 45.7382 7.02466L45.663 7.21001ZM46.5684 7.71706L46.041 8.24486L46.1824 8.38622L46.7098 7.85842L46.5684 7.71706ZM46.1879 8.25079C45.977 8.00257 45.7119 7.80611 45.4131 7.67659L45.3335 7.8601C45.6043 7.97744 45.8444 8.15541 46.0355 8.38029L46.1879 8.25079ZM45.4131 7.67659C45.1142 7.54707 44.7896 7.48793 44.4642 7.50376L44.474 7.70352C44.7687 7.68919 45.0628 7.74276 45.3335 7.8601L45.4131 7.67659ZM44.4696 7.50364C44.1441 7.50196 43.8216 7.56599 43.5213 7.69191L43.5987 7.87634C43.8741 7.76083 44.17 7.70209 44.4686 7.70364L44.4696 7.50364ZM43.5213 7.69191C43.2211 7.81782 42.9494 8.00303 42.7225 8.23644L42.8659 8.37586C43.0741 8.16174 43.3233 7.99185 43.5987 7.87634L43.5213 7.69191ZM42.7225 8.23644C42.4956 8.46985 42.3181 8.74665 42.2007 9.05028L42.3872 9.12242C42.4949 8.84389 42.6577 8.58997 42.8659 8.37586L42.7225 8.23644ZM42.2007 9.05028C42.0832 9.35391 42.0283 9.67811 42.0392 10.0035L42.239 9.99681C42.2291 9.69835 42.2795 9.40095 42.3872 9.12242L42.2007 9.05028ZM42.0391 9.99855C42.0314 10.4855 42.1684 10.9639 42.4328 11.3729L42.6008 11.2643C42.3579 10.8886 42.232 10.4491 42.2391 10.0017L42.0391 9.99855ZM42.4328 11.3729C42.6973 11.7819 43.0773 12.1032 43.5245 12.296L43.6037 12.1123C43.1928 11.9352 42.8437 11.6401 42.6008 11.2643L42.4328 11.3729ZM43.5245 12.296C43.9718 12.4888 44.4663 12.5444 44.9452 12.4558L44.9088 12.2591C44.4689 12.3405 44.0146 12.2894 43.6037 12.1123L43.5245 12.296ZM44.9452 12.4558C45.4242 12.3672 45.866 12.1384 46.2147 11.7983L46.0751 11.6551C45.7547 11.9675 45.3488 12.1777 44.9088 12.2591L44.9452 12.4558ZM46.2182 11.7948C46.5424 11.4454 46.7303 10.9913 46.7477 10.515L46.5479 10.5077C46.5322 10.936 46.3632 11.3445 46.0716 11.6587L46.2182 11.7948ZM46.6478 10.4113H44.4691V10.6113H46.6478V10.4113ZM44.5691 10.5113V9.79064H44.3691V10.5113H44.5691ZM44.4691 9.89064H47.3764V9.69064H44.4691V9.89064ZM47.2781 9.80874C47.3045 9.95221 47.318 10.0978 47.3184 10.2436L47.5184 10.243C47.5179 10.0852 47.5033 9.92775 47.4747 9.77254L47.2781 9.80874ZM52.0277 7.63744H49.2953V7.83744H52.0277V7.63744ZM49.1953 7.73744V9.63974H49.3953V7.73744H49.1953ZM49.2953 9.73974H51.7592V9.53974H49.2953V9.73974ZM51.6592 9.63974V10.3605H51.8592V9.63974H51.6592ZM51.7592 10.2605H49.2953V10.4605H51.7592V10.2605ZM49.1953 10.3605V12.2628H49.3953V10.3605H49.1953ZM49.2953 12.3628H52.0277V12.1628H49.2953V12.3628ZM51.9277 12.2628V13.0001H52.1277V12.2628H51.9277ZM52.0277 12.9001H48.5248V13.1001H52.0277V12.9001ZM48.6248 13.0001V7.00014H48.4248V13.0001H48.6248ZM48.5248 7.10014H52.0277V6.90014H48.5248V7.10014ZM51.9277 7.00014V7.73744H52.1277V7.00014H51.9277ZM55.2787 12.9001H54.5072V13.1001H55.2787V12.9001ZM54.6072 13.0001V7.73744H54.4072V13.0001H54.6072ZM54.5072 7.63744H52.8314V7.83744H54.5072V7.63744ZM52.9314 7.73744V7.00014H52.7314V7.73744H52.9314ZM52.8314 7.10014H56.9545V6.90014H52.8314V7.10014ZM56.8545 7.00014V7.73744H57.0545V7.00014H56.8545ZM56.9545 7.63744H55.2787V7.83744H56.9545V7.63744ZM55.1787 7.73744V13.0001H55.3787V7.73744H55.1787ZM60.0379 13.0001V7.00014H59.8379V13.0001H60.0379ZM59.9379 7.10014H60.7084V6.90014H59.9379V7.10014ZM60.6084 7.00014V13.0001H60.8084V7.00014H60.6084ZM60.7084 12.9001H59.9379V13.1001H60.7084V12.9001ZM64.1283 12.9001H63.3568V13.1001H64.1283V12.9001ZM63.4568 13.0001V7.73744H63.2568V13.0001H63.4568ZM63.3568 7.63744H61.6811V7.83744H63.3568V7.63744ZM61.7811 7.73744V7.00014H61.5811V7.73744H61.7811ZM61.6811 7.10014H65.8041V6.90014H61.6811V7.10014ZM65.7041 7.00014V7.73744H65.9041V7.00014H65.7041ZM65.8041 7.63744H64.1283V7.83744H65.8041V7.63744ZM64.0283 7.73744V13.0001H64.2283V7.73744H64.0283ZM73.5387 12.1539C72.9734 12.7175 72.2078 13.0339 71.4096 13.0339V13.2339C72.2607 13.2339 73.0772 12.8965 73.6799 12.2956L73.5387 12.1539ZM71.4096 13.0339C70.6114 13.0339 69.8458 12.7175 69.2805 12.1539L69.1393 12.2956C69.7421 12.8965 70.5585 13.2339 71.4096 13.2339V13.0339ZM69.2811 12.1545C69.0016 11.8714 68.7819 11.535 68.635 11.1653L68.4491 11.2391C68.6059 11.6338 68.8404 11.9928 69.1387 12.295L69.2811 12.1545ZM68.635 11.1653C68.4881 10.7956 68.4171 10.4001 68.4261 10.0024L68.2261 9.99787C68.2165 10.4224 68.2923 10.8445 68.4491 11.2391L68.635 11.1653ZM68.4261 9.99787C68.4171 9.60016 68.4881 9.20469 68.635 8.83499L68.4491 8.76114C68.2923 9.15577 68.2165 9.57789 68.2261 10.0024L68.4261 9.99787ZM68.635 8.83499C68.7819 8.46528 69.0016 8.12888 69.2811 7.8458L69.1387 7.70528C68.8404 8.00745 68.6059 8.36652 68.4491 8.76114L68.635 8.83499ZM69.2806 7.84624C69.56 7.56681 69.8917 7.34521 70.2568 7.19414L70.1804 7.00934C69.7909 7.17046 69.4371 7.4068 69.1392 7.70484L69.2806 7.84624ZM70.2568 7.19414C70.6219 7.04307 71.0133 6.96549 71.4084 6.96584L71.4086 6.76584C70.9871 6.76547 70.5698 6.84821 70.1804 7.00934L70.2568 7.19414ZM71.4084 6.96584C71.8035 6.96619 72.1947 7.04447 72.5595 7.19618L72.6363 7.01152C72.2472 6.8497 71.83 6.76621 71.4086 6.76584L71.4084 6.96584ZM72.5595 7.19618C72.9244 7.3479 73.2557 7.57009 73.5346 7.85001L73.6763 7.70886C73.3788 7.4103 73.0254 7.17333 72.6363 7.01152L72.5595 7.19618ZM73.5344 7.84982C73.8141 8.13216 74.0342 8.46781 74.1817 8.83684L74.3674 8.7626C74.21 8.3687 73.975 8.01043 73.6764 7.70906L73.5344 7.84982ZM74.1817 8.83684C74.3292 9.20587 74.4011 9.60078 74.3931 9.99813L74.5931 10.0022C74.6016 9.57803 74.5249 9.15651 74.3674 8.7626L74.1817 8.83684ZM74.3931 10.0023C74.4019 10.4 74.3308 10.7955 74.1839 11.1651L74.3697 11.239C74.5265 10.8444 74.6025 10.4224 74.5931 9.99793L74.3931 10.0023ZM74.1839 11.1651C74.037 11.5348 73.8174 11.8713 73.5381 12.1545L73.6805 12.295C73.9786 11.9926 74.213 11.6336 74.3697 11.239L74.1839 11.1651ZM69.7086 11.7931C70.1598 12.2436 70.7714 12.4966 71.4091 12.4966V12.2966C70.8244 12.2966 70.2636 12.0646 69.8499 11.6516L69.7086 11.7931ZM71.4091 12.4966C72.0468 12.4966 72.6584 12.2436 73.1097 11.7931L72.9684 11.6516C72.5546 12.0646 71.9938 12.2966 71.4091 12.2966V12.4966ZM73.1105 11.7922C73.3418 11.5555 73.5226 11.2743 73.6422 10.9657L73.4557 10.8934C73.3459 11.1768 73.1798 11.4351 72.9675 11.6525L73.1105 11.7922ZM73.6422 10.9657C73.7617 10.6571 73.8174 10.3274 73.8059 9.99668L73.6061 10.0036C73.6166 10.3073 73.5654 10.61 73.4557 10.8934L73.6422 10.9657ZM73.8059 10.0036C73.8174 9.67285 73.7617 9.34321 73.6422 9.0346L73.4557 9.10683C73.5654 9.39023 73.6166 9.69295 73.6061 9.99668L73.8059 10.0036ZM73.6422 9.0346C73.5226 8.72599 73.3418 8.44482 73.1105 8.20806L72.9675 8.34781C73.1798 8.56522 73.3459 8.82343 73.4557 9.10683L73.6422 9.0346ZM73.1097 8.20717C72.6584 7.75666 72.0468 7.50363 71.4091 7.50363V7.70363C71.9938 7.70363 72.5546 7.93563 72.9684 8.34871L73.1097 8.20717ZM71.4091 7.50363C70.7714 7.50363 70.1598 7.75666 69.7086 8.20717L69.8499 8.34871C70.2636 7.93563 70.8244 7.70363 71.4091 7.70363V7.50363ZM69.7076 8.20814C69.4767 8.44507 69.2961 8.72629 69.1768 9.03486L69.3633 9.10699C69.4729 8.8236 69.6388 8.56533 69.8508 8.34773L69.7076 8.20814ZM69.1768 9.03486C69.0575 9.34342 69.0018 9.67295 69.0133 10.0036L69.2131 9.99669C69.2027 9.69303 69.2537 9.39038 69.3633 9.10699L69.1768 9.03486ZM69.0133 9.99669C69.0018 10.3273 69.0575 10.6569 69.1768 10.9654L69.3633 10.8933C69.2537 10.6099 69.2027 10.3073 69.2131 10.0036L69.0133 9.99669ZM69.1768 10.9654C69.2961 11.274 69.4767 11.5552 69.7076 11.7921L69.8508 11.6525C69.6388 11.4349 69.4729 11.1767 69.3633 10.8933L69.1768 10.9654ZM75.6751 13.0001V7.00014H75.4751V13.0001H75.6751ZM75.5751 7.10014H76.5136V6.90014H75.5751V7.10014ZM76.4288 7.05312L79.3448 11.7206L79.5144 11.6147L76.5984 6.94715L76.4288 7.05312ZM79.4296 11.7676H79.4628V11.5676H79.4296V11.7676ZM79.5628 11.6648L79.5296 10.5085L79.3296 10.5142L79.3628 11.6705L79.5628 11.6648ZM79.5296 10.5113V7.00014H79.3296V10.5113H79.5296ZM79.4296 7.10014H80.2011V6.90014H79.4296V7.10014ZM80.1011 7.00014V13.0001H80.3011V7.00014H80.1011ZM80.2011 12.9001H79.3964V13.1001H80.2011V12.9001ZM79.4813 12.9472L76.4305 8.05363L76.2607 8.15944L79.3115 13.053L79.4813 12.9472ZM76.3456 8.00654H76.3124V8.20654H76.3456V8.00654ZM76.2124 8.10941L76.2456 9.26571L76.4456 9.25997L76.4124 8.10367L76.2124 8.10941ZM76.2456 9.26284V13.0001H76.4456V9.26284H76.2456ZM76.3456 12.9001H75.5751V13.1001H76.3456V12.9001Z" fill="white"/>
<path d="M68.1357 21.7517C67.2952 21.7549 66.4745 22.007 65.7772 22.4763C65.0799 22.9456 64.5373 23.611 64.2178 24.3884C63.8984 25.1659 63.8165 26.0205 63.9824 26.8445C64.1483 27.6685 64.5547 28.4248 65.1501 29.018C65.7456 29.6112 66.5035 30.0147 67.3281 30.1775C68.1527 30.3403 69.007 30.2551 69.7832 29.9327C70.5595 29.6103 71.2228 29.0652 71.6894 28.3661C72.156 27.667 72.4051 26.8453 72.405 26.0048C72.4133 25.4426 72.3084 24.8845 72.0966 24.3637C71.8847 23.8429 71.5703 23.37 71.172 22.9732C70.7737 22.5764 70.2996 22.2638 69.778 22.0539C69.2564 21.8441 68.6979 21.7413 68.1357 21.7517ZM68.1357 28.5825C67.6181 28.6194 67.1014 28.4996 66.6528 28.2387C66.2042 27.9778 65.8445 27.5879 65.6207 27.1198C65.3968 26.6516 65.319 26.1269 65.3975 25.6139C65.476 25.101 65.7071 24.6235 66.0608 24.2438C66.4144 23.864 66.8742 23.5995 67.3803 23.4847C67.8864 23.3699 68.4153 23.4101 68.8982 23.6001C69.3811 23.7902 69.7956 24.1212 70.0877 24.5501C70.3799 24.979 70.5361 25.4859 70.5361 26.0048C70.5519 26.3326 70.5018 26.6603 70.389 26.9685C70.2761 27.2767 70.1028 27.5593 69.8791 27.7994C69.6554 28.0396 69.386 28.2327 69.0866 28.3671C68.7872 28.5016 68.4639 28.5749 68.1357 28.5825ZM58.8223 21.7517C57.9818 21.7549 57.1611 22.007 56.4638 22.4763C55.7665 22.9455 55.2238 23.6109 54.9044 24.3884C54.5849 25.1658 54.503 26.0205 54.6689 26.8444C54.8348 27.6684 55.2411 28.4248 55.8366 29.018C56.4321 29.6112 57.1899 30.0147 58.0145 30.1775C58.8391 30.3403 59.6935 30.2551 60.4697 29.9327C61.246 29.6103 61.9093 29.0652 62.3759 28.3661C62.8425 27.667 63.0916 26.8453 63.0915 26.0048C63.0998 25.4426 62.9949 24.8845 62.7831 24.3637C62.5713 23.8429 62.2568 23.3701 61.8585 22.9733C61.4602 22.5765 60.9862 22.2638 60.4646 22.054C59.943 21.8441 59.3845 21.7413 58.8223 21.7517ZM58.8223 28.5825C58.3047 28.6194 57.788 28.4996 57.3394 28.2387C56.8908 27.9778 56.5311 27.5879 56.3073 27.1198C56.0834 26.6516 56.0056 26.1269 56.0841 25.6139C56.1626 25.101 56.3937 24.6235 56.7474 24.2438C57.101 23.864 57.5608 23.5995 58.0669 23.4847C58.573 23.3699 59.1019 23.4101 59.5848 23.6001C60.0677 23.7902 60.4822 24.1212 60.7743 24.5501C61.0665 24.979 61.2227 25.4859 61.2227 26.0048C61.2385 26.3326 61.1884 26.6603 61.0756 26.9685C60.9628 27.2767 60.7894 27.5593 60.5657 27.7995C60.342 28.0397 60.0726 28.2327 59.7732 28.3672C59.4738 28.5016 59.1505 28.5749 58.8223 28.5825ZM47.7435 23.0567V24.861H52.0612C51.9989 25.7073 51.6526 26.5078 51.0784 27.1326C50.6458 27.5736 50.1254 27.9191 49.551 28.1466C48.9766 28.3741 48.3609 28.4787 47.7435 28.4536C46.4815 28.4365 45.277 27.9232 44.3906 27.0247C43.5042 26.1262 43.0072 24.9148 43.0072 23.6527C43.0072 22.3906 43.5042 21.1792 44.3906 20.2807C45.277 19.3822 46.4815 18.8689 47.7435 18.8518C48.9558 18.836 50.1253 19.2991 50.9979 20.1406L52.2706 18.8679C51.6752 18.2784 50.9681 17.8137 50.1907 17.5011C49.4133 17.1885 48.5813 17.0343 47.7435 17.0474C46.868 17.0347 45.9987 17.1961 45.1862 17.5223C44.3736 17.8485 43.634 18.3331 43.0104 18.9477C42.3867 19.5623 41.8915 20.2948 41.5535 21.1025C41.2155 21.9102 41.0414 22.7771 41.0414 23.6527C41.0414 24.5283 41.2155 25.3952 41.5535 26.2029C41.8915 27.0106 42.3867 27.7431 43.0104 28.3577C43.634 28.9724 44.3736 29.4569 45.1862 29.7831C45.9987 30.1093 46.868 30.2708 47.7435 30.258C48.599 30.2935 49.4522 30.1466 50.2466 29.8272C51.041 29.5078 51.7584 29.0231 52.3511 28.4053C53.4036 27.2566 53.9645 25.7415 53.9139 24.1844C53.9181 23.8063 53.8857 23.4286 53.8171 23.0567H47.7435ZM93.0518 24.4582C92.7962 23.6878 92.3097 23.0148 91.6583 22.5306C91.0069 22.0464 90.2222 21.7744 89.4108 21.7517C88.8644 21.7551 88.3243 21.8693 87.8232 22.0873C87.3221 22.3053 86.8704 22.6227 86.4955 23.0203C86.1205 23.4178 85.8301 23.8873 85.6417 24.4002C85.4533 24.9132 85.3709 25.4591 85.3994 26.0048C85.3871 26.564 85.4876 27.1199 85.695 27.6394C85.9024 28.1588 86.2123 28.6312 86.6063 29.0282C87.0002 29.4252 87.4702 29.7387 87.9881 29.95C88.5059 30.1613 89.0611 30.2661 89.6203 30.258C90.321 30.2619 91.0116 30.0917 91.6302 29.7627C92.2489 29.4337 92.7761 28.9562 93.1645 28.3731L91.7146 27.4065C91.4974 27.7672 91.1902 28.0653 90.823 28.2715C90.4559 28.4776 90.0414 28.5848 89.6203 28.5825C89.187 28.5991 88.7588 28.4851 88.391 28.2553C88.0233 28.0254 87.7331 27.6904 87.5581 27.2937L93.2452 24.9416L93.0518 24.4582ZM87.2521 25.876C87.2321 25.5664 87.274 25.256 87.3754 24.9628C87.4768 24.6697 87.6357 24.3997 87.8427 24.1687C88.0497 23.9376 88.3007 23.7502 88.581 23.6174C88.8614 23.4845 89.1654 23.4089 89.4753 23.395C89.7979 23.3738 90.1197 23.448 90.4005 23.6084C90.6813 23.7689 90.9086 24.0084 91.0541 24.2972L87.2521 25.876ZM82.6283 30.0002H84.4971V17.4986H82.6283V30.0002ZM79.5673 22.7022H79.5029C79.2188 22.3935 78.8721 22.149 78.4859 21.9851C78.0997 21.8212 77.683 21.7416 77.2635 21.7517C76.1669 21.7984 75.1306 22.2669 74.3711 23.0594C73.6116 23.8519 73.1876 24.9072 73.1876 26.0049C73.1876 27.1025 73.6116 28.1578 74.3711 28.9503C75.1306 29.7428 76.1669 30.2113 77.2635 30.258C77.6846 30.2692 78.1031 30.1885 78.4898 30.0216C78.8766 29.8547 79.2223 29.6055 79.5029 29.2914H79.5673V29.9036C79.5673 31.5308 78.6974 32.4007 77.2957 32.4007C76.8286 32.3895 76.3754 32.2395 75.9938 31.9698C75.6122 31.7001 75.3196 31.3229 75.1531 30.8863L73.5259 31.563C73.8326 32.3097 74.3553 32.9478 75.0269 33.3955C75.6985 33.8433 76.4886 34.0803 77.2957 34.0762C79.4868 34.0762 81.3395 32.7874 81.3395 29.6458V22.0094H79.5673V22.7022ZM77.4247 28.5825C76.7788 28.5277 76.177 28.2324 75.7384 27.7551C75.2998 27.2777 75.0564 26.6531 75.0564 26.0049C75.0564 25.3566 75.2998 24.732 75.7384 24.2546C76.177 23.7773 76.7788 23.482 77.4247 23.4272C77.7461 23.4429 78.061 23.5231 78.3507 23.6631C78.6404 23.8031 78.8989 24 79.1109 24.242C79.3229 24.4841 79.4839 24.7663 79.5845 25.0719C79.6851 25.3776 79.7231 25.7003 79.6962 26.0209C79.7214 26.3395 79.682 26.66 79.5804 26.963C79.4788 27.2661 79.3172 27.5455 79.1051 27.7847C78.8931 28.0238 78.635 28.2177 78.3462 28.3548C78.0575 28.4919 77.7441 28.5693 77.4247 28.5825ZM101.806 17.4988H97.3345V30.0002H99.2002V25.2638H101.806C102.334 25.2927 102.862 25.2138 103.358 25.0317C103.854 24.8497 104.308 24.5684 104.692 24.205C105.076 23.8417 105.381 23.4038 105.59 22.9184C105.799 22.4329 105.907 21.9099 105.907 21.3813C105.907 20.8528 105.799 20.3298 105.59 19.8443C105.381 19.3588 105.076 18.921 104.692 18.5576C104.308 18.1942 103.854 17.9129 103.358 17.7309C102.862 17.5488 102.334 17.4699 101.806 17.4988ZM101.854 23.524H99.2002V19.2387H101.854C102.139 19.2328 102.422 19.2839 102.688 19.3889C102.953 19.4939 103.194 19.6508 103.398 19.8503C103.602 20.0499 103.764 20.2881 103.874 20.551C103.985 20.8139 104.041 21.0962 104.041 21.3814C104.041 21.6665 103.985 21.9488 103.874 22.2117C103.764 22.4746 103.602 22.7128 103.398 22.9124C103.194 23.1119 102.953 23.2688 102.688 23.3738C102.422 23.4789 102.139 23.5299 101.854 23.524ZM113.386 21.7287C112.705 21.6889 112.027 21.8489 111.435 22.1889C110.844 22.5288 110.365 23.0341 110.056 23.6426L111.713 24.3342C111.877 24.0322 112.126 23.7846 112.429 23.6218C112.732 23.4589 113.075 23.3879 113.418 23.4174C113.891 23.3712 114.363 23.5145 114.731 23.816C115.099 24.1175 115.332 24.5525 115.38 25.0257V25.1544C114.781 24.8361 114.112 24.6704 113.434 24.6719C111.649 24.6719 109.831 25.653 109.831 27.4865C109.849 27.8729 109.943 28.2519 110.11 28.601C110.277 28.9501 110.512 29.2621 110.801 29.5186C111.091 29.7751 111.429 29.9709 111.795 30.0942C112.162 30.2176 112.55 30.266 112.935 30.2367C113.405 30.2644 113.874 30.1656 114.292 29.9506C114.711 29.7356 115.064 29.4123 115.316 29.0144H115.38V29.9794H117.181V25.1866C117.181 22.9671 115.525 21.7287 113.386 21.7287ZM113.16 28.5801C112.549 28.5801 111.697 28.2746 111.697 27.5186C111.697 26.5537 112.758 26.1837 113.675 26.1837C114.271 26.1678 114.859 26.3123 115.38 26.6019C115.311 27.1441 115.049 27.6432 114.641 28.0069C114.233 28.3705 113.707 28.5742 113.16 28.5801ZM123.743 22.0021L121.604 27.4221H121.54L119.32 22.0021H117.31L120.639 29.5773L118.741 33.7911H120.687L125.818 22.0021H123.743ZM106.936 30.0002H108.802V17.4988H106.936V30.0002Z" fill="white"/>
<path d="M10.4353 7.53818C10.1074 7.93025 9.94182 8.43287 9.97251 8.94308V31.0592C9.94173 31.5694 10.1073 32.072 10.4353 32.4641L10.5093 32.5362L22.8983 20.1473V19.855L10.5093 7.46558L10.4353 7.53818Z" fill="url(#paint0_linear_0_778)"/>
<path d="M27.0277 24.2785L22.8983 20.1471V19.8548L27.0287 15.7244L27.1218 15.7775L32.0146 18.5576C33.4122 19.3516 33.4122 20.6508 32.0146 21.4453L27.1218 24.2254L27.0277 24.2785Z" fill="url(#paint1_linear_0_778)"/>
<path d="M27.1218 24.2249L22.8983 20.001L10.4353 32.4639C10.7201 32.715 11.0837 32.8587 11.4633 32.8699C11.8428 32.8811 12.2143 32.7592 12.5134 32.5253L27.1218 24.2249Z" fill="url(#paint2_linear_0_778)"/>
<path d="M27.1218 15.7771L12.5134 7.47666C12.2143 7.24275 11.8428 7.12084 11.4633 7.13206C11.0837 7.14327 10.7201 7.2869 10.4353 7.53806L22.8983 20.0011L27.1218 15.7771Z" fill="url(#paint3_linear_0_778)"/>
<path opacity="0.2" d="M27.0287 24.1318L12.5134 32.3791C12.2258 32.5981 11.8748 32.7175 11.5134 32.7194C11.152 32.7214 10.7997 32.6057 10.5098 32.3898L10.4353 32.4643L10.5093 32.5364L10.5098 32.5359C10.7997 32.7519 11.1519 32.8677 11.5134 32.8657C11.8749 32.8638 12.2259 32.7443 12.5134 32.5252L27.1218 24.2248L27.0287 24.1318Z" fill="black"/>
<path opacity="0.12" d="M10.4353 32.3185C10.1074 31.9264 9.94183 31.4238 9.97248 30.9136V31.0597C9.94181 31.5699 10.1074 32.0725 10.4353 32.4646L10.5098 32.3901L10.4353 32.3185Z" fill="black"/>
<path opacity="0.12" d="M32.0146 21.2988L27.0287 24.132L27.1218 24.225L32.0146 21.4449C32.3024 21.32 32.5515 21.1202 32.7358 20.8663C32.9202 20.6125 33.0331 20.3138 33.0629 20.0015C33.001 20.2843 32.8741 20.5488 32.6921 20.774C32.5101 20.9992 32.2781 21.1789 32.0146 21.2988Z" fill="black"/>
<path opacity="0.25" d="M12.5134 7.62334L32.0146 18.7033C32.2783 18.8232 32.5103 19.0029 32.6923 19.2282C32.8743 19.4535 33.0012 19.7182 33.0629 20.0011C33.0334 19.6887 32.9205 19.3899 32.7362 19.1359C32.5518 18.8819 32.3026 18.6821 32.0146 18.5572L12.5134 7.47724C11.1158 6.68314 9.97253 7.34274 9.97253 8.94354V9.08964C9.97253 7.48894 11.1158 6.82934 12.5134 7.62334Z" fill="white"/>
</g>
<defs>
<linearGradient id="paint0_linear_0_778" x1="21.7996" y1="8.70989" x2="5.01724" y2="25.4923" gradientUnits="userSpaceOnUse">
<stop stop-color="#00A0FF"/>
<stop offset="0.00657" stop-color="#00A1FF"/>
<stop offset="0.2601" stop-color="#00BEFF"/>
<stop offset="0.5122" stop-color="#00D2FF"/>
<stop offset="0.7604" stop-color="#00DFFF"/>
<stop offset="1" stop-color="#00E3FF"/>
</linearGradient>
<linearGradient id="paint1_linear_0_778" x1="33.8343" y1="20.0014" x2="9.6374" y2="20.0014" gradientUnits="userSpaceOnUse">
<stop stop-color="#FFE000"/>
<stop offset="0.4087" stop-color="#FFBD00"/>
<stop offset="0.7754" stop-color="#FFA500"/>
<stop offset="1" stop-color="#FF9C00"/>
</linearGradient>
<linearGradient id="paint2_linear_0_778" x1="24.8269" y1="22.2961" x2="2.06857" y2="45.0544" gradientUnits="userSpaceOnUse">
<stop stop-color="#FF3A44"/>
<stop offset="1" stop-color="#C31162"/>
</linearGradient>
<linearGradient id="paint3_linear_0_778" x1="7.29723" y1="0.176237" x2="17.4598" y2="10.3388" gradientUnits="userSpaceOnUse">
<stop stop-color="#32A071"/>
<stop offset="0.0685" stop-color="#2DA771"/>
<stop offset="0.4762" stop-color="#15CF74"/>
<stop offset="0.8009" stop-color="#06E775"/>
<stop offset="1" stop-color="#00F076"/>
</linearGradient>
<clipPath id="clip0_0_778">
<rect width="135" height="40.0002" fill="white"/>
</clipPath>
</defs>
</svg>
